OpenSim_Sub01_CSBaseline_LCS.mot
version=1
nRows=32
nColumns=11
inDegrees=no
endheader
time	Bot_Shank	2nd_Bot_Shank	2nd_Top_Shank	Top_Shank	Bot_Thigh	Med_Thigh	Top_Thigh	BNOx	BNOy	BNOZ
44.62000000	9307.33268315	9801.66372482	10399.14688341	10399.16435073	13170.71400939	14279.11904046	15052.22137135	198.26155118	-58.51938099	142.86488069
44.63000000	9303.73606994	9804.34836309	10399.35405708	10399.33737152	13173.46364091	14280.39092095	15054.56030087	197.57594175	-58.80919699	143.26629870
44.64000000	9299.08059548	9806.40308389	10399.61676719	10399.51478072	13179.33726325	14286.13239006	15058.67307087	196.94425082	-59.08671581	143.64229298
44.65000000	9293.62486895	9807.96894439	10399.91104577	10399.66373211	13187.61116382	14295.21704509	15064.45792063	196.35641552	-59.35451326	144.02632586
44.66000000	9287.62749949	9809.18700172	10400.21292481	10399.75137946	13197.56163006	14306.51848339	15071.81308942	195.80237298	-59.61516514	144.45185969
44.67000000	9281.34709628	9810.19831304	10400.49843631	10399.74487655	13208.46494939	14318.91030225	15080.63681653	195.27206033	-59.87124726	144.95235679
44.68000000	9275.04226848	9811.14393550	10400.74361228	10399.61137715	13219.59740923	14331.26609902	15090.82734124	194.75541471	-60.12533542	145.56127949
44.69000000	9268.97162524	9812.16492624	10400.92448474	10399.31803504	13230.23529701	14342.45947099	15102.28290282	194.24237323	-60.38000544	146.31209014
44.70000000	9263.39240686	9813.40142188	10401.01728724	10398.83263269	13239.65917159	14351.37154204	15114.90079081	193.72290697	-60.63782638	147.23759573
44.71000000	9258.45594310	9814.92233646	10401.01384860	10398.17159448	13247.48007421	14357.46576613	15128.50481257	193.18961221	-60.90084572	148.31989999
44.72000000	9254.13403807	9816.67585683	10400.93243261	10397.43379627	13253.86923669	14361.19268724	15142.79421813	192.63953520	-61.17022688	149.45516109
44.73000000	9250.38110605	9818.59847557	10400.79386370	10396.72610057	13259.05215388	14363.09846411	15157.45619219	192.07015323	-61.44704762	150.53121202
44.74000000	9247.15156135	9820.62668525	10400.61896633	10396.15536993	13263.25432062	14363.72925547	15172.17791948	191.47894360	-61.73238569	151.43588582
44.75000000	9244.39981826	9822.69697846	10400.42856491	10395.82846686	13266.70123176	14363.63122007	15186.64658472	190.86338359	-62.02731887	152.05701550
44.76000000	9242.08029107	9824.74584777	10400.24348388	10395.85225388	13269.61838214	14363.35051665	15200.54937264	190.22095050	-62.33292491	152.28243407
44.77000000	9240.14739407	9826.70978577	10400.08454768	10396.33359354	13272.23126660	14363.43330393	15213.57346796	189.54912162	-62.65028157	151.99997455
44.78000000	9238.55499780	9828.52556296	10399.97242864	10397.37728788	13274.76377939	14364.42122025	15225.40664314	188.84540060	-62.98045600	151.09961516
44.79000000	9237.21490086	9830.15145438	10399.91603082	10398.92871888	13277.31597524	14366.50615880	15235.78214456	188.10933007	-63.32369322	149.63730963
44.80000000	9235.96758710	9831.58218671	10399.90431022	10400.66304050	13279.77799228	14369.28717042	15244.51030004	187.34390892	-63.67884477	147.95035164
44.81000000	9234.64663241	9832.81601751	10399.92429056	10402.22923094	13282.01963506	14372.30588013	15251.40890391	186.55247084	-64.04462718	146.40328700
44.82000000	9233.08561270	9833.85120434	10399.96299558	10403.27626842	13283.91070808	14375.10391292	15256.29575052	185.73834948	-64.41975698	145.36066147
44.83000000	9231.11810388	9834.68600478	10400.00744902	10403.45313118	13285.32101588	14377.22289381	15258.98863420	184.90487853	-64.80295072	145.18702085
44.84000000	9228.57768185	9835.31867640	10400.04467460	10402.40879741	13286.12036297	14378.20444781	15259.30534929	184.05539167	-65.19292493	146.24691090
44.85000000	9225.29792252	9835.74747676	10400.06169605	10399.79224535	13286.17855389	14377.59019992	15257.06369012	183.19322256	-65.58839615	148.90487743
44.86000000	9221.11240179	9835.97066343	10400.04553710	10395.25245321	13285.36539315	14374.92177516	15252.08145103	182.32170488	-65.98808092	153.52546620
44.87000000	9215.85529898	9835.98605013	10399.98327209	10388.43887166	13283.55125371	14369.74241374	15244.17753102	181.44414964	-66.39070560	160.47092745
44.88000000	9209.48871906	9835.69735429	10399.87270363	10379.10111253	13280.72701738	14361.93778058	15233.40502060	180.55906220	-66.79708015	169.61685576
44.89000000	9202.26018594	9834.79835207	10399.73557052	10367.21226036	13277.15243707	14352.15753533	15220.33952234	179.65422587	-67.21266327	179.75305261
44.90000000	9194.45584260	9832.95441320	10399.59685028	10352.77563702	13273.12364575	14341.15471116	15205.62733815	178.71597322	-67.64354269	189.52240457
44.91000000	9186.36183203	9829.83090743	10399.48152046	10335.79456437	13268.93677637	14329.68234122	15189.91476994	177.73063679	-68.09580611	197.56779822
44.92000000	9178.26429720	9825.09320449	10399.41455857	10316.27236430	13264.88796188	14318.49345864	15173.84811962	176.68454914	-68.57554125	202.53212013
44.93000000	9170.44938109	9818.40667412	10399.42094214	10294.21235867	13261.27333523	14308.34109659	15158.07368908	175.56404283	-69.08883583	203.05825687
